<svg id="Layer_1" data-name="Layer 1" xmlns="http://www.w3.org/2000/svg" xmlns:xlink="http://www.w3.org/1999/xlink" viewBox="0 0 27.18 19.2"><defs><style>.cls-1,.cls-3,.cls-4{fill:none;}.cls-2{clip-path:url(#clip-path);}.cls-3,.cls-4{stroke:#fff;stroke-width:2px;}.cls-3{stroke-miterlimit:10;}.cls-4{stroke-linecap:round;stroke-linejoin:round;}</style><clipPath id="clip-path" transform="translate(0.09 0.1)"><rect class="cls-1" width="27" height="19"/></clipPath></defs><g class="cls-2"><path class="cls-3" d="M25,.9H2.05A1.14,1.14,0,0,0,.91,2V17A1.14,1.14,0,0,0,2.05,18.1H25A1.14,1.14,0,0,0,26.09,17V2A1.14,1.14,0,0,0,25,.9Z" transform="translate(0.09 0.1)"/><path class="cls-4" d="M13.06,11.43,1.87,2.63a1,1,0,0,1-.33-.49,1,1,0,0,1,0-.59.94.94,0,0,1,.35-.46A1,1,0,0,1,2.48.91H24.85a.94.94,0,0,1,.56.18,1,1,0,0,1,.36.46.92.92,0,0,1,0,.59,1,1,0,0,1-.32.49l-11.19,8.8a.93.93,0,0,1-.6.21,1,1,0,0,1-.61-.21Z" transform="translate(0.09 0.1)"/></g></svg>