<svg width="27" height="19" viewBox="0 0 27 19" fill="none" xmlns="http://www.w3.org/2000/svg">
<g clip-path="url(#clip0)">
<path d="M24.9524 0.900146H2.04757C1.41859 0.900146 0.908691 1.40528 0.908691 2.02838V16.9715C0.908691 17.5946 1.41859 18.0998 2.04757 18.0998H24.9524C25.5814 18.0998 26.0913 17.5946 26.0913 16.9715V2.02838C26.0913 1.40528 25.5814 0.900146 24.9524 0.900146Z" stroke="black" stroke-width="2" stroke-miterlimit="10"/>
<path d="M13.0608 11.4325L1.87183 2.62861C1.71358 2.50391 1.59836 2.33355 1.54213 2.14112C1.4859 1.9487 1.49143 1.74371 1.55797 1.55454C1.62451 1.36537 1.74875 1.20136 1.91351 1.08521C2.07827 0.969068 2.2754 0.906529 2.47762 0.90625H24.8494C25.0516 0.906529 25.2487 0.969068 25.4135 1.08521C25.5783 1.20136 25.7025 1.36537 25.7691 1.55454C25.8356 1.74371 25.8411 1.9487 25.7849 2.14112C25.7287 2.33355 25.6134 2.50391 25.4552 2.62861L14.2723 11.4325C14.0995 11.5668 13.8862 11.6398 13.6665 11.6398C13.4469 11.6398 13.2336 11.5668 13.0608 11.4325V11.4325Z" stroke="black" stroke-width="2" stroke-linecap="round" stroke-linejoin="round"/>
</g>
<defs>
<clipPath id="clip0">
<rect width="27" height="19" fill="white"/>
</clipPath>
</defs>
</svg>
