<?xml version="1.0" encoding="utf-8"?>
<!-- Generator: Adobe Illustrator 24.3.0, SVG Export Plug-In . SVG Version: 6.00 Build 0)  -->
<svg version="1.1" id="Layer_1" xmlns:serif="http://www.serif.com/"
	 xmlns="http://www.w3.org/2000/svg" xmlns:xlink="http://www.w3.org/1999/xlink" x="0px" y="0px" viewBox="0 0 600 480"
	 style="enable-background:new 0 0 600 480;" xml:space="preserve">
<style type="text/css">
	.st0{fill-rule:evenodd;clip-rule:evenodd;fill:#FFC627;}
</style>
<path class="st0" d="M481.4,0C513.7,0,540,26.3,540,58.6v362.7c0,32.4-26.3,58.6-58.6,58.6h-99.8V299.1H444l11.9-77.5h-74.3v-50.3
	c0-21.2,10.4-41.8,43.7-41.8H459V63.6c0,0-30.7-5.2-60-5.2c-61.2,0-101.2,37.1-101.2,104.3v59h-68v77.5h68V480H118.6
	C86.3,480,60,453.7,60,421.4V58.6C60,26.3,86.3,0,118.6,0L481.4,0L481.4,0z"/>
</svg>
