<svg width="21" height="27" viewBox="0 0 21 27" fill="none" xmlns="http://www.w3.org/2000/svg">
<path d="M17.9987 7.05936C17.9935 7.06476 17.9884 7.07016 17.9833 7.07569L18.0481 6.99767C18.0347 7.02176 18.0167 7.04053 17.9987 7.05936Z" fill="#3AA76D" stroke="#00A651" stroke-width="9"/>
<circle cx="10.5" cy="15.8577" r="9.4" stroke="#00A651" stroke-width="2.2"/>
<path d="M5.53145 12.4455C5.05432 12.1674 4.44205 12.3287 4.16391 12.8058C3.88577 13.2829 4.04709 13.8952 4.52423 14.1733L5.53145 12.4455ZM10.5913 16.5525L10.0877 17.4165C10.3927 17.5943 10.769 17.5981 11.0776 17.4263L10.5913 16.5525ZM16.5158 14.4C16.9984 14.1315 17.1719 13.5225 16.9034 13.04C16.6348 12.5574 16.0259 12.3838 15.5433 12.6524L16.5158 14.4ZM4.52423 14.1733L10.0877 17.4165L11.0949 15.6886L5.53145 12.4455L4.52423 14.1733ZM11.0776 17.4263L16.5158 14.4L15.5433 12.6524L10.105 15.6787L11.0776 17.4263Z" fill="#00A651"/>
</svg>
