<svg width="25" height="22" viewBox="0 0 25 22" fill="none" xmlns="http://www.w3.org/2000/svg">
<path d="M12.5 22L12.0588 21.6296C2.57353 13.8519 0 11.1111 0 6.66667C0 2.96296 2.94118 0 6.61765 0C9.63235 0 11.3235 1.7037 12.5 3.03704C13.6765 1.7037 15.3676 0 18.3824 0C22.0588 0 25 2.96296 25 6.66667C25 11.1111 22.4265 13.8519 12.9412 21.6296L12.5 22ZM6.61765 1.48148C3.75 1.48148 1.47059 3.77778 1.47059 6.66667C1.47059 10.4444 3.82353 12.963 12.5 20.0741C21.1765 12.963 23.5294 10.4444 23.5294 6.66667C23.5294 3.77778 21.25 1.48148 18.3824 1.48148C15.8088 1.48148 14.4118 3.03704 13.3088 4.2963L12.5 5.25926L11.6912 4.2963C10.5882 3.03704 9.19118 1.48148 6.61765 1.48148Z" fill="#E25822"/>
</svg>
