<?xml version="1.0" encoding="utf-8"?>
<!-- Generator: Adobe Illustrator 24.3.0, SVG Export Plug-In . SVG Version: 6.00 Build 0)  -->
<svg version="1.1" id="Layer_1" xmlns:serif="http://www.serif.com/"
	 xmlns="http://www.w3.org/2000/svg" xmlns:xlink="http://www.w3.org/1999/xlink" x="0px" y="0px" viewBox="0 0 600 480"
	 style="enable-background:new 0 0 600 480;" xml:space="preserve">
<style type="text/css">
	.st0{fill-rule:evenodd;clip-rule:evenodd;fill:#FFC627;}
</style>
<path class="st0" d="M480,0H120C86.9,0,60,26.9,60,60v360c0,33.1,26.9,60,60,60h360c33.1,0,60-26.9,60-60V60C540,26.9,513.1,0,480,0
	z M197.6,409.3h-80.4V167.5h80.4V409.3z M157.4,134.5h-0.5c-27,0-44.4-18.6-44.4-41.8c0-23.7,18-41.8,45.5-41.8s44.4,18.1,44.9,41.8
	C202.9,115.9,185.4,134.5,157.4,134.5z M487.5,409.4h-80.4V280c0-32.5-11.6-54.7-40.7-54.7c-22.2,0-35.4,15-41.2,29.4
	c-2.2,5.1-2.7,12.4-2.7,19.6v135h-80.4c0,0,1.1-219.1,0-241.8h80.4v34.2c10.7-16.4,29.8-39.9,72.4-39.9c52.9,0,92.6,34.6,92.6,108.9
	V409.4z"/>
</svg>
