<svg id="Layer_1" data-name="Layer 1" xmlns="http://www.w3.org/2000/svg" viewBox="0 0 28 35"><defs><style>.cls-1{fill:#fff;}</style></defs><path class="cls-1" d="M28,15C28,6.72,21.73,0,14,0S0,6.72,0,15A15.49,15.49,0,0,0,4,25.5H4l.06.06.08.1,7.92,8.48a2.61,2.61,0,0,0,3.88,0l7.91-8.48.09-.1L24,25.5h0A15.49,15.49,0,0,0,28,15ZM15.94,30.61c-1.94,2.07-1.94,2.08-3.88,0l-6.3-6.8A12.87,12.87,0,0,1,2.33,15C2.33,8.1,7.56,2.5,14,2.5S25.67,8.1,25.67,15a12.87,12.87,0,0,1-3.43,8.81Z"/><path class="cls-1" d="M14,7c-3.87,0-7,3.58-7,8s3.13,8,7,8,7-3.58,7-8S17.87,7,14,7Zm0,13.33C11.42,20.33,9.33,18,9.33,15S11.42,9.67,14,9.67s4.67,2.38,4.67,5.33S16.58,20.33,14,20.33Z"/></svg>