<svg width="28" height="35" viewBox="0 0 28 35" fill="none" xmlns="http://www.w3.org/2000/svg">
<path d="M28 15.0035C28 6.71782 21.7315 0 14 0C6.26851 0 0 6.71782 0 15.0035C0 19.0932 1.53184 22.7966 4.0075 25.5034H4.00171L4.05891 25.5647C4.08689 25.5947 4.11487 25.6259 4.14404 25.656L12.0598 34.1391C13.1309 35.287 14.8669 35.287 15.9379 34.1391L23.8537 25.656C23.8817 25.6259 23.9108 25.5959 23.9389 25.5647L23.996 25.5034H23.9902C26.4681 22.7966 28 19.0932 28 15.0035ZM15.9389 30.6071C14.0023 32.6825 14.0011 32.6876 12.061 30.6071L5.75513 23.8131C3.6493 21.5537 2.33329 18.4505 2.33329 15.0035C2.33329 8.09817 7.5564 2.50063 14 2.50063C20.4435 2.50063 25.6666 8.09817 25.6666 15.0035C25.6666 18.4505 24.3506 21.5537 22.2448 23.8131L15.9389 30.6071Z" fill="#272536"/>
<path d="M14 7C10.1337 7 7 10.5814 7 15C7 19.4185 10.1337 23 14 23C17.8663 23 21 19.4185 21 15C21 10.5814 17.8663 7 14 7ZM14 20.3332C11.4228 20.3332 9.33333 17.9452 9.33333 15C9.33333 12.0546 11.4229 9.66667 14 9.66667C16.5771 9.66667 18.6667 12.0547 18.6667 15C18.6667 17.9453 16.5771 20.3332 14 20.3332Z" fill="#272536"/>
</svg>
