<svg width="201" height="46" viewBox="0 0 201 46" fill="none" xmlns="http://www.w3.org/2000/svg">
<g clip-path="url(#clip0)">
<path d="M37.471 17.6687C36.6239 16.2963 35.4923 15.1212 34.1526 14.2225C32.8128 13.3239 31.2959 12.7226 29.7041 12.4591C29.9747 12.3843 30.239 12.2885 30.4947 12.1726C30.976 11.9807 31.4107 11.6881 31.7695 11.3144C32.1283 10.9407 32.4029 10.4946 32.5749 10.006C32.7469 9.51749 32.8123 8.9978 32.7667 8.4819C32.7211 7.96599 32.5655 7.46583 32.3104 7.015C31.6985 6.09644 30.7733 5.43148 29.7072 5.14396C28.6412 4.85644 27.5069 4.96595 26.5156 5.4521C26.0343 5.64397 25.5996 5.93658 25.2408 6.31027C24.8819 6.68395 24.6073 7.13006 24.4353 7.61861C24.2633 8.10717 24.1979 8.62685 24.2436 9.14276C24.2892 9.65866 24.4447 10.1588 24.6998 10.6097C25.1614 11.367 25.861 11.9502 26.6894 12.2681C25.0319 12.3461 23.4057 12.7472 21.9023 13.4489C21.077 13.8435 20.2988 14.3299 19.5826 14.8989C18.2223 13.8865 16.6613 13.176 15.0041 12.8151C15.2781 12.7533 15.5457 12.6661 15.8034 12.5546C16.2944 12.3858 16.7439 12.1146 17.1221 11.7591C17.5004 11.4037 17.7988 10.9719 17.9975 10.4925C18.1963 10.0132 18.2909 9.49704 18.2751 8.97836C18.2593 8.45969 18.1335 7.95028 17.9059 7.48386C17.3464 6.52094 16.4506 5.7986 15.3906 5.45563C14.3306 5.11266 13.1812 5.17325 12.1632 5.62575C11.6728 5.79675 11.2241 6.06946 10.8466 6.42599C10.4691 6.78252 10.1713 7.21481 9.97273 7.69448C9.77419 8.17415 9.67938 8.69035 9.69454 9.20923C9.70971 9.7281 9.83449 10.2379 10.0607 10.7052C10.489 11.4787 11.1609 12.0892 11.972 12.4417C10.3153 12.4428 8.67557 12.7764 7.15026 13.4229C-0.868677 16.9307 -1.16407 24.9709 1.51181 30.1025C1.6275 30.329 1.75511 30.5493 1.89408 30.7623C1.22511 26.803 1.5205 20.6296 7.81923 17.8945C9.25966 17.2851 10.8095 16.9761 12.3736 16.9865C13.9378 16.997 15.4833 17.3266 16.9155 17.9553C18.0142 18.4333 19.0223 19.0972 19.8954 19.9176C20.6198 19.2044 21.4453 18.6017 22.3454 18.1289C22.4972 18.0393 22.6538 17.9582 22.8145 17.8858C27.9317 15.472 34.2478 17.1825 36.9237 21.7062C37.7711 23.3769 38.2846 25.1965 38.4354 27.0635C39.4779 24.4847 39.0088 20.2649 37.471 17.6687Z" fill="#2DC117"/>
<path d="M34.8646 32.2378C35.2291 31.6243 35.4601 30.9408 35.5422 30.2321C35.6227 29.7996 35.6634 29.3608 35.6639 28.921C35.6273 26.8844 34.7832 24.9456 33.317 23.5308C31.8508 22.116 29.8825 21.3408 27.8447 21.3756C26.1485 21.3621 24.4938 21.9003 23.1304 22.909C21.767 23.9176 20.7687 25.342 20.2863 26.9673C19.7047 25.4976 18.691 24.2387 17.3788 23.3566C16.0666 22.4746 14.5176 22.0109 12.9363 22.0268C10.8984 21.9966 8.93142 22.7745 7.466 24.1902C6.00058 25.606 5.15603 27.5443 5.11719 29.5808C5.11682 30.6425 5.34808 31.6914 5.79484 32.6545C5.86435 32.8022 5.94254 32.9498 6.02942 33.106C6.02792 33.1379 6.02792 33.1697 6.02942 33.2016C8.75742 37.9944 20.1038 46 20.1038 46C20.1038 46 30.4077 38.7585 34.1869 33.3318C34.4391 32.9841 34.6656 32.6184 34.8646 32.2378Z" fill="#FFC627"/>
</g>
<path d="M69.512 16.868C67.856 15.86 65.3 15.032 62.564 15.032C56.264 15.032 51.692 19.64 51.692 26.804C51.692 33.932 56.048 38.468 62.564 38.468C65.192 38.468 67.676 37.712 69.332 36.632L68.9 34.364C67.352 35.516 65.048 36.38 62.6 36.38C57.452 36.38 54.032 32.672 54.032 26.732C54.032 20.612 57.632 17.12 62.528 17.12C64.904 17.12 66.992 17.768 68.792 18.92L69.512 16.868ZM88.1344 29.72C88.1344 24.428 84.8224 21.044 80.2144 21.044C75.6064 21.044 72.0784 24.536 72.0784 29.792C72.0784 35.084 75.4624 38.468 80.0344 38.468C84.6064 38.468 88.1344 34.976 88.1344 29.72ZM85.9384 29.792C85.9384 33.68 83.6344 36.452 80.1424 36.452C76.6504 36.452 74.3104 33.752 74.3104 29.72C74.3104 25.832 76.6144 23.06 80.1064 23.06C83.5984 23.06 85.9384 25.76 85.9384 29.792ZM115.107 38V26.732C115.107 23.096 113.163 21.044 110.031 21.044C108.123 21.044 106.035 21.944 104.199 23.78C103.407 21.944 101.787 21.044 99.7354 21.044C98.0434 21.044 96.2074 21.764 94.5154 23.312C94.5154 23.168 94.5154 21.044 94.5154 21.044L92.2834 21.512V38H94.5154V25.076C95.7754 23.96 97.3594 23.168 99.0874 23.168C101.463 23.168 102.579 24.5 102.579 27.38V38H104.811V26.768C104.811 26.372 104.775 25.508 104.739 25.292C105.999 24.104 107.619 23.168 109.383 23.168C111.759 23.168 112.875 24.5 112.875 27.38V38H115.107ZM143.021 38V26.732C143.021 23.096 141.077 21.044 137.945 21.044C136.037 21.044 133.949 21.944 132.113 23.78C131.321 21.944 129.701 21.044 127.649 21.044C125.957 21.044 124.121 21.764 122.429 23.312C122.429 23.168 122.429 21.044 122.429 21.044L120.197 21.512V38H122.429V25.076C123.689 23.96 125.273 23.168 127.001 23.168C129.377 23.168 130.493 24.5 130.493 27.38V38H132.725V26.768C132.725 26.372 132.689 25.508 132.653 25.292C133.913 24.104 135.533 23.168 137.297 23.168C139.673 23.168 140.789 24.5 140.789 27.38V38H143.021Z" fill="#2DC117"/>
<path d="M159.2 15.5H153.872L145.664 38H150.092L151.928 32.672H161L162.872 38H167.3L159.2 15.5ZM159.884 29.036H153.08L156.5 19.28L159.884 29.036ZM174.477 15.824C174.477 14.312 173.541 13.268 171.849 13.268C170.193 13.268 169.257 14.312 169.257 15.824C169.257 17.372 170.193 18.38 171.849 18.38C173.541 18.38 174.477 17.372 174.477 15.824ZM173.973 38V20.9L169.725 21.512V38H173.973ZM189.458 21.404C188.414 21.08 187.118 20.864 185.93 20.864C181.214 20.864 177.542 24.536 177.542 29.828C177.542 34.976 180.386 38.54 184.778 38.54C186.83 38.54 188.342 37.46 189.458 36.38C189.458 36.56 189.458 38 189.458 38H193.706V13.376L189.458 13.952V21.404ZM189.458 25.22C189.458 25.22 189.458 33.716 189.458 33.572C188.522 34.436 187.442 34.94 186.038 34.94C183.482 34.94 181.862 32.888 181.862 29.648C181.862 26.588 183.482 24.248 186.326 24.248C187.586 24.248 188.63 24.608 189.458 25.22Z" fill="#F2C94C"/>
<defs>
<clipPath id="clip0">
<rect width="39" height="41" fill="white" transform="translate(0 5)"/>
</clipPath>
</defs>
</svg>
