<svg width="29" height="29" viewBox="0 0 29 29" fill="none" xmlns="http://www.w3.org/2000/svg">
<g clip-path="url(#clip0)">
<mask id="path-1-inside-1" fill="white">
<path d="M21.9324 29C17.7637 29 12.2809 26.1 7.56837 21.4328C1.26993 15.0891 -1.58475 7.47656 0.907433 3.57969C0.998058 3.35313 1.134 3.17187 1.31525 3.03594L3.62618 0.725C4.12462 0.271875 4.759 0 5.484 0C6.29962 0 7.06993 0.3625 7.70431 0.951562L11.8277 5.075C13.0059 6.25312 13.0965 8.06563 12.009 9.10781L9.38087 11.7359C10.4231 13.2312 11.6465 14.6813 12.9606 16.0406C14.3199 17.4 15.7699 18.5781 17.2652 19.6203L19.8934 16.9922C20.3918 16.4937 21.0262 16.2672 21.7512 16.2672C22.5668 16.2672 23.3371 16.6297 23.9715 17.2188L28.0949 21.3422C28.6387 21.8859 28.9559 22.6109 29.0465 23.3359C29.0918 24.1063 28.8199 24.8766 28.3215 25.375L26.0106 27.6859C25.8746 27.8219 25.6934 27.9578 25.4668 28.0938C24.4699 28.6828 23.2918 29 21.9324 29ZM5.484 1.8125C5.30275 1.8125 5.07618 1.85781 4.94025 2.03906L2.584 4.35C2.584 4.35 2.53868 4.39531 2.53868 4.44063L2.49337 4.53125C0.408996 7.65781 3.21837 14.5 8.88243 20.1188C13.1418 24.4234 18.2621 27.1875 21.9324 27.1875C22.9746 27.1875 23.7902 26.9609 24.4699 26.5531L24.5606 26.5078C24.6512 26.4625 24.6512 26.4625 24.6512 26.4625L26.9621 24.1516C27.1887 23.925 27.1887 23.6531 27.1887 23.5172C27.1887 23.2 27.0074 22.9281 26.7809 22.6562L22.6574 18.4875C22.3856 18.2156 22.0684 18.0797 21.7512 18.0797C21.5699 18.0797 21.3434 18.125 21.2074 18.3063L18.534 20.9797C17.9449 21.5687 16.9934 21.6141 16.3137 21.1156C14.7277 20.0281 13.1871 18.7141 11.7824 17.3094C10.3324 15.8594 9.06368 14.3641 7.97618 12.7781C7.47775 12.0531 7.52306 11.1016 8.11212 10.5578L10.7856 7.88437C11.1481 7.52187 11.0574 6.84219 10.6043 6.38906L6.48087 2.26562C6.11837 1.94844 5.80118 1.8125 5.484 1.8125Z"/>
</mask>
<path d="M21.9324 29C17.7637 29 12.2809 26.1 7.56837 21.4328C1.26993 15.0891 -1.58475 7.47656 0.907433 3.57969C0.998058 3.35313 1.134 3.17187 1.31525 3.03594L3.62618 0.725C4.12462 0.271875 4.759 0 5.484 0C6.29962 0 7.06993 0.3625 7.70431 0.951562L11.8277 5.075C13.0059 6.25312 13.0965 8.06563 12.009 9.10781L9.38087 11.7359C10.4231 13.2312 11.6465 14.6813 12.9606 16.0406C14.3199 17.4 15.7699 18.5781 17.2652 19.6203L19.8934 16.9922C20.3918 16.4937 21.0262 16.2672 21.7512 16.2672C22.5668 16.2672 23.3371 16.6297 23.9715 17.2188L28.0949 21.3422C28.6387 21.8859 28.9559 22.6109 29.0465 23.3359C29.0918 24.1063 28.8199 24.8766 28.3215 25.375L26.0106 27.6859C25.8746 27.8219 25.6934 27.9578 25.4668 28.0938C24.4699 28.6828 23.2918 29 21.9324 29ZM5.484 1.8125C5.30275 1.8125 5.07618 1.85781 4.94025 2.03906L2.584 4.35C2.584 4.35 2.53868 4.39531 2.53868 4.44063L2.49337 4.53125C0.408996 7.65781 3.21837 14.5 8.88243 20.1188C13.1418 24.4234 18.2621 27.1875 21.9324 27.1875C22.9746 27.1875 23.7902 26.9609 24.4699 26.5531L24.5606 26.5078C24.6512 26.4625 24.6512 26.4625 24.6512 26.4625L26.9621 24.1516C27.1887 23.925 27.1887 23.6531 27.1887 23.5172C27.1887 23.2 27.0074 22.9281 26.7809 22.6562L22.6574 18.4875C22.3856 18.2156 22.0684 18.0797 21.7512 18.0797C21.5699 18.0797 21.3434 18.125 21.2074 18.3063L18.534 20.9797C17.9449 21.5687 16.9934 21.6141 16.3137 21.1156C14.7277 20.0281 13.1871 18.7141 11.7824 17.3094C10.3324 15.8594 9.06368 14.3641 7.97618 12.7781C7.47775 12.0531 7.52306 11.1016 8.11212 10.5578L10.7856 7.88437C11.1481 7.52187 11.0574 6.84219 10.6043 6.38906L6.48087 2.26562C6.11837 1.94844 5.80118 1.8125 5.484 1.8125Z" fill="black"/>
<path d="M7.56837 21.4328L-54.8797 83.4348L-54.6188 83.6975L-54.3557 83.9581L7.56837 21.4328ZM0.907433 3.57969L75.043 50.9919L79.5243 43.9848L82.6134 36.2621L0.907433 3.57969ZM1.31525 3.03594L54.1152 73.4359L59.1184 69.6836L63.5406 65.2613L1.31525 3.03594ZM3.62618 0.725L-55.569 -64.3897L-57.1185 -62.9811L-58.5992 -61.5004L3.62618 0.725ZM7.70431 0.951562L69.9297 -61.2738L68.7778 -62.4258L67.584 -63.5343L7.70431 0.951562ZM11.8277 5.075L74.0531 -57.1504L74.0531 -57.1504L11.8277 5.075ZM12.009 9.10781L-48.8787 -54.4272L-49.5545 -53.7795L-50.2164 -53.1176L12.009 9.10781ZM9.38087 11.7359L-52.8445 -50.4895L-104.943 1.60859L-62.8142 62.0537L9.38087 11.7359ZM12.9606 16.0406L-50.3104 77.2026L-49.7921 77.7387L-49.2648 78.266L12.9606 16.0406ZM17.2652 19.6203L-33.0525 91.8154L27.3926 133.944L79.4906 81.8457L17.2652 19.6203ZM19.8934 16.9922L82.1187 79.2176L82.1188 79.2176L19.8934 16.9922ZM23.9715 17.2188L86.1969 -45.0066L85.045 -46.1586L83.8512 -47.2671L23.9715 17.2188ZM29.0465 23.3359L116.895 18.1684L116.725 15.286L116.367 12.4209L29.0465 23.3359ZM25.4668 28.0938L70.235 103.855L70.4892 103.705L70.7424 103.553L25.4668 28.0938ZM4.94025 2.03906L66.5586 64.8656L71.3302 60.1858L75.3402 54.8391L4.94025 2.03906ZM2.584 4.35L-59.0344 -58.4766L-59.3393 -58.1775L-59.6414 -57.8754L2.584 4.35ZM2.53868 4.44063L81.2483 43.7954L90.5387 25.2146V4.44063H2.53868ZM2.49337 4.53125L75.7138 53.3449L78.7528 48.7863L81.203 43.886L2.49337 4.53125ZM8.88243 20.1188L71.4362 -41.7765L71.1482 -42.0676L70.8574 -42.356L8.88243 20.1188ZM24.4699 26.5531L-14.8843 -52.1568L-17.9074 -50.6452L-20.8057 -48.9063L24.4699 26.5531ZM24.5606 26.5078L63.9148 105.218L63.9154 105.217L24.5606 26.5078ZM24.6512 26.4625L-54.1351 65.6635L0.365494 175.199L86.8766 88.6879L24.6512 26.4625ZM26.9621 24.1516L-35.2633 -38.0738L-35.2633 -38.0738L26.9621 24.1516ZM26.7809 22.6562L94.3843 -33.68L91.9831 -36.5615L89.3454 -39.2282L26.7809 22.6562ZM22.6574 18.4875L85.2219 -43.3969L85.0528 -43.5679L84.8828 -43.7379L22.6574 18.4875ZM21.2074 18.3063L83.4328 80.5316L87.8551 76.1094L91.6074 71.1063L21.2074 18.3063ZM16.3137 21.1156L68.3537 -49.848L67.2297 -50.6723L66.0802 -51.4605L16.3137 21.1156ZM7.97618 12.7781L80.5523 -36.9884L80.5221 -37.0324L80.4919 -37.0764L7.97618 12.7781ZM8.11212 10.5578L67.8008 75.2205L69.0935 74.0272L70.3375 72.7832L8.11212 10.5578ZM10.6043 6.38906L-51.6211 68.6145L-51.6211 68.6145L10.6043 6.38906ZM6.48087 2.26562L68.7063 -59.9598L66.6344 -62.0317L64.4293 -63.9611L6.48087 2.26562ZM21.9324 -59C38.9022 -59 50.8314 -53.6005 56.0059 -50.8715C62.1063 -47.6541 66.4577 -44.098 69.4924 -41.0925L-54.3557 83.9581C-42.7087 95.4931 -16.0763 117 21.9324 117V-59ZM70.0164 -40.5692C73.9286 -36.6288 79.4035 -29.8409 83.3745 -19.2137C85.3911 -13.8169 87.8769 -5.10759 88.0053 6.11392C88.1354 17.4799 85.7813 34.2011 75.043 50.9919L-73.2281 -43.8326C-96.675 -7.17021 -86.3735 29.3263 -81.4917 42.3911C-75.1418 59.3846 -65.0903 73.1507 -54.8797 83.4348L70.0164 -40.5692ZM82.6134 36.2621C77.1892 49.8225 67.8409 63.1417 54.1152 73.4359L-51.4848 -67.3641C-65.5729 -56.798 -75.1931 -43.1162 -80.7985 -29.1027L82.6134 36.2621ZM63.5406 65.2613L65.8516 62.9504L-58.5992 -61.5004L-60.9102 -59.1895L63.5406 65.2613ZM62.8214 65.8397C48.2173 79.1162 28.0876 88 5.484 88V-88C-18.5696 -88 -39.9681 -78.5724 -55.569 -64.3897L62.8214 65.8397ZM5.484 88C-20.6752 88 -40.3956 76.3758 -52.1754 65.4374L67.584 -63.5343C54.5354 -75.6508 33.2744 -88 5.484 -88V88ZM-54.5211 63.177L-50.3976 67.3004L74.0531 -57.1504L69.9297 -61.2738L-54.5211 63.177ZM-50.3977 67.3004C-77.1442 40.5538 -90.129 -14.8956 -48.8787 -54.4272L72.8967 72.6428C116.322 31.0269 103.156 -28.0476 74.0531 -57.1504L-50.3977 67.3004ZM-50.2164 -53.1176L-52.8445 -50.4895L71.6063 73.9613L74.2344 71.3332L-50.2164 -53.1176ZM-62.8142 62.0537C-58.644 68.037 -54.2908 73.085 -50.3104 77.2026L76.2315 -45.1213C77.5838 -43.7225 79.4901 -41.5745 81.5759 -38.5818L-62.8142 62.0537ZM-49.2648 78.266C-43.7402 83.7906 -38.184 88.2389 -33.0525 91.8154L67.583 -52.5747C69.7238 -51.0826 72.3801 -48.9906 75.186 -46.1848L-49.2648 78.266ZM79.4906 81.8457L82.1187 79.2176L-42.332 -45.2332L-44.9601 -42.6051L79.4906 81.8457ZM82.1188 79.2176C63.6878 97.6486 40.6943 104.267 21.7512 104.267V-71.7328C1.35807 -71.7328 -22.9042 -64.6611 -42.332 -45.2332L82.1188 79.2176ZM21.7512 104.267C-4.40795 104.267 -24.1283 92.643 -35.9082 81.7046L83.8512 -47.2671C70.8026 -59.3837 49.5416 -71.7328 21.7512 -71.7328V104.267ZM-38.2539 79.4441L-34.1305 83.5676L90.3203 -40.8832L86.1969 -45.0066L-38.2539 79.4441ZM-34.1305 83.5676C-48.9822 68.7159 -56.2256 50.6381 -58.274 34.251L116.367 12.4209C114.137 -5.41621 106.26 -24.944 90.3203 -40.8832L-34.1305 83.5676ZM-58.8016 28.5035C-60.0595 7.12079 -53.1606 -17.5937 -33.9039 -36.8504L90.5469 87.6004C110.8 67.3468 118.243 41.0917 116.895 18.1684L-58.8016 28.5035ZM-33.9039 -36.8504L-36.2148 -34.5395L88.236 89.9113L90.5469 87.6004L-33.9039 -36.8504ZM-36.2148 -34.5395C-29.7688 -40.9855 -23.6297 -45.0731 -19.8088 -47.3656L70.7424 103.553C75.0164 100.989 81.518 96.6293 88.236 89.9113L-36.2148 -34.5395ZM-19.3014 -47.6678C-5.42586 -55.8669 9.14208 -59 21.9324 -59V117C37.4415 117 54.3657 113.233 70.235 103.855L-19.3014 -47.6678ZM5.484 -86.1875C-4.09863 -86.1875 -40.1575 -84.4973 -65.4598 -50.7609L75.3402 54.8391C50.3099 88.2129 14.7041 89.8125 5.484 89.8125V-86.1875ZM-56.6781 -60.7875L-59.0344 -58.4766L64.2024 67.1766L66.5586 64.8656L-56.6781 -60.7875ZM2.584 4.35C-59.6414 -57.8754 -59.6566 -57.8602 -59.6718 -57.845C-59.6769 -57.8399 -59.6921 -57.8246 -59.7023 -57.8144C-59.7226 -57.7941 -59.7431 -57.7736 -59.7635 -57.753C-59.8044 -57.712 -59.8455 -57.6706 -59.8869 -57.629C-59.9695 -57.5457 -60.053 -57.4612 -60.1373 -57.3755C-60.3059 -57.2042 -60.478 -57.0279 -60.6535 -56.8466C-61.0039 -56.4845 -61.3705 -56.0994 -61.7508 -55.692C-62.5059 -54.8829 -63.344 -53.9545 -64.2376 -52.9119C-65.9461 -50.9186 -68.2383 -48.0665 -70.6591 -44.4353C-73.5924 -40.0354 -85.4613 -22.0332 -85.4613 4.44063H90.5387C90.5387 18.769 87.0514 30.0904 84.2517 37.0897C81.3802 44.2686 78.0962 49.7203 75.7818 53.1919C73.3723 56.8062 71.0915 59.6441 69.3915 61.6275C68.5021 62.6651 67.6675 63.5897 66.9149 64.3961C66.5358 64.8022 66.1702 65.1862 65.8204 65.5476C65.6453 65.7286 65.4734 65.9047 65.305 66.0758C65.2208 66.1614 65.1374 66.2458 65.0548 66.329C65.0135 66.3707 64.9724 66.412 64.9315 66.4531C64.911 66.4736 64.8906 66.4941 64.8703 66.5145C64.8601 66.5246 64.8449 66.5399 64.8398 66.545C64.8246 66.5602 64.8094 66.5754 2.584 4.35ZM-76.1709 -34.9142L-76.2162 -34.8235L81.203 43.886L81.2483 43.7954L-76.1709 -34.9142ZM-70.7271 -44.2824C-97.4325 -4.22427 -82.308 35.8291 -78.637 44.7806C-72.2638 60.3213 -62.7506 73.0127 -53.0926 82.5935L70.8574 -42.356C74.8514 -38.394 80.1279 -31.933 84.2015 -21.9997C86.2338 -17.0442 89.1284 -8.38948 89.7048 3.07727C90.2739 14.3967 88.7239 33.8297 75.7138 53.3449L-70.7271 -44.2824ZM-53.6713 82.014C-46.0479 89.7185 -36.8524 96.9263 -26.2535 102.662C-16.962 107.69 0.0229142 115.188 21.9324 115.188V-60.8125C40.1716 -60.8125 52.7613 -54.697 57.5102 -52.1271C63.5665 -48.8498 68.0722 -45.1764 71.4362 -41.7765L-53.6713 82.014ZM21.9324 115.188C36.547 115.188 53.4854 111.769 69.7456 102.013L-20.8057 -48.9063C-5.90489 -57.8467 9.40221 -60.8125 21.9324 -60.8125V115.188ZM63.8241 105.263L63.9148 105.218L-14.7936 -52.2021L-14.8843 -52.1568L63.8241 105.263ZM63.9154 105.217C63.9606 105.195 63.9827 105.184 63.9935 105.178C63.9961 105.177 63.9979 105.176 63.9992 105.175C64.0005 105.175 64.001 105.175 64.001 105.175C64.0009 105.175 64.0007 105.175 64.0002 105.175C63.9998 105.175 63.9988 105.176 63.9974 105.176C63.9968 105.177 63.9929 105.179 63.9879 105.181C63.9865 105.182 63.9787 105.186 63.9687 105.191C63.9659 105.192 63.9502 105.2 63.9303 105.21C63.9246 105.213 63.8933 105.228 63.8534 105.248C63.842 105.254 63.7793 105.285 63.6994 105.325C63.6224 105.363 63.4682 105.439 63.391 105.477C-3.56943 109.815 -54.1219 65.69 24.6512 26.4625C103.424 -12.765 52.8718 -56.8897 -14.0888 -52.5515C-14.1659 -52.5137 -14.3201 -52.4377 -14.3971 -52.3996C-14.4769 -52.3601 -14.5396 -52.3289 -14.551 -52.3232C-14.5909 -52.3034 -14.6222 -52.2877 -14.6279 -52.2849C-14.6479 -52.2749 -14.6635 -52.2671 -14.6664 -52.2657C-14.6763 -52.2607 -14.6842 -52.2568 -14.6856 -52.2561C-14.6906 -52.2536 -14.6946 -52.2516 -14.6954 -52.2512C-14.6981 -52.2499 -14.7004 -52.2487 -14.7014 -52.2482C-14.7041 -52.2469 -14.7079 -52.2449 -14.7137 -52.242C-14.7257 -52.2361 -14.7488 -52.2245 -14.7942 -52.2018L63.9154 105.217ZM86.8766 88.6879L89.1875 86.3769L-35.2633 -38.0738L-37.5742 -35.7629L86.8766 88.6879ZM89.1875 86.377C116.774 58.7908 115.189 24.9606 115.189 23.5172H-60.8113C-60.8113 23.6045 -60.8376 20.7208 -60.5779 17.1886C-60.3064 13.4961 -59.696 8.39245 -58.2122 2.45721C-55.0916 -10.0251 -48.3555 -24.9816 -35.2633 -38.0738L89.1875 86.377ZM115.189 23.5172C115.189 -10.8239 95.3398 -32.5335 94.3843 -33.68L-40.8226 78.9925C-42.0607 77.5068 -46.7117 71.9258 -51.0053 63.6688C-55.6961 54.648 -60.8113 40.8627 -60.8113 23.5172H115.189ZM89.3454 -39.2282L85.2219 -43.3969L-39.9071 80.3719L-35.7836 84.5407L89.3454 -39.2282ZM84.8828 -43.7379C70.4702 -58.1505 48.5487 -69.9203 21.7512 -69.9203V106.08C-4.41201 106.08 -25.6991 94.5817 -39.568 80.7129L84.8828 -43.7379ZM21.7512 -69.9203C12.1686 -69.9203 -23.8903 -68.2301 -49.1926 -34.4938L91.6074 71.1063C66.5771 104.48 30.9713 106.08 21.7512 106.08V-69.9203ZM-41.018 -43.9191L-43.6914 -41.2457L80.7594 83.2051L83.4328 80.5316L-41.018 -43.9191ZM-43.6914 -41.2457C-11.4878 -73.4493 36.4336 -73.256 68.3537 -49.848L-35.7263 92.0793C-2.4469 116.484 47.3777 116.587 80.7594 83.2051L-43.6914 -41.2457ZM66.0802 -51.4605C69.6421 -49.0181 72.223 -46.7009 74.0078 -44.916L-50.443 79.5348C-45.8487 84.129 -40.1866 89.0743 -33.4528 93.6918L66.0802 -51.4605ZM74.0078 -44.916C75.8091 -43.1147 78.1523 -40.4884 80.5523 -36.9884L-64.6 62.5446C-60.0249 69.2165 -55.1443 74.8335 -50.443 79.5348L74.0078 -44.916ZM80.4919 -37.0764C99.8422 -8.93042 105.375 40.5367 67.8008 75.2205L-51.5765 -54.1049C-90.3288 -18.3336 -84.8868 33.0367 -64.5395 62.6327L80.4919 -37.0764ZM70.3375 72.7832L73.011 70.1098L-51.4398 -54.341L-54.1133 -51.6676L70.3375 72.7832ZM73.011 70.1098C96.5768 46.5439 100.915 17.0038 98.3212 -3.74434C95.7268 -24.5 86.1145 -42.5515 72.8297 -55.8363L-51.6211 68.6145C-64.4528 55.7828 -73.7932 38.2977 -76.3197 18.0857C-78.8452 -2.11862 -74.6432 -31.1377 -51.4398 -54.341L73.011 70.1098ZM72.8297 -55.8363L68.7063 -59.9598L-55.7445 64.491L-51.6211 68.6145L72.8297 -55.8363ZM64.4293 -63.9611C54.3527 -72.7782 34.2426 -86.1875 5.484 -86.1875V89.8125C-22.6402 89.8125 -42.1159 76.675 -51.4675 68.4924L64.4293 -63.9611Z" fill="black" mask="url(#path-1-inside-1)"/>
</g>
<defs>
<clipPath id="clip0">
<rect width="29" height="29" fill="white"/>
</clipPath>
</defs>
</svg>
