<?xml version="1.0" encoding="utf-8"?>
<!-- Generator: Adobe Illustrator 24.3.0, SVG Export Plug-In . SVG Version: 6.00 Build 0)  -->
<svg version="1.1" id="Layer_1" xmlns:serif="http://www.serif.com/"
	 xmlns="http://www.w3.org/2000/svg" xmlns:xlink="http://www.w3.org/1999/xlink" x="0px" y="0px" viewBox="0 0 600 480"
	 style="enable-background:new 0 0 600 480;" xml:space="preserve">
<style type="text/css">
	.st0{fill:#FFC627;}
</style>
<path class="st0" d="M300,0C167.5,0,60,107.5,60,240c0,101.7,63.3,188.6,152.5,223.6c-2.1-19-4-48.2,0.8-68.9
	c4.4-18.7,28.1-119.3,28.1-119.3s-7.2-14.4-7.2-35.6c0-33.4,19.3-58.3,43.4-58.3c20.5,0,30.4,15.4,30.4,33.8
	c0,20.6-13.1,51.4-19.9,79.9c-5.7,23.9,12,43.4,35.5,43.4c42.7,0,75.4-45,75.4-109.9c0-57.5-41.3-97.6-100.2-97.6
	c-68.3,0-108.4,51.2-108.4,104.2c0,20.6,7.9,42.7,17.9,54.8c2,2.4,2.2,4.5,1.7,6.9c-1.8,7.6-5.9,23.9-6.7,27.2c-1,4.4-3.5,5.3-8,3.2
	c-30-14-48.7-57.8-48.7-93c0-75.7,55-145.2,158.6-145.2c83.3,0,148,59.3,148,138.6c0,82.7-52.2,149.3-124.5,149.3
	c-24.3,0-47.2-12.6-55-27.6c0,0-12,45.8-15,57.1c-5.4,20.8-20,47-29.8,62.9c22.5,7,46.3,10.7,71.1,10.7c132.6,0,240-107.4,240-240
	C540,107.5,432.6,0,300,0L300,0z"/>
</svg>
