<svg width="20" height="21" viewBox="0 0 20 21" fill="none" xmlns="http://www.w3.org/2000/svg">
<g clip-path="url(#clip0)">
<path d="M12.83 20.2334C9.72 20.2334 6.02 20.4534 4.3 20.2834L3.78 20.2334H3.55C2.92543 20.1129 2.3349 19.8569 1.82 19.4834C1.29908 19.0702 0.868709 18.5542 0.555617 17.9676C0.242525 17.381 0.0534026 16.7362 0 16.0734L0.13 1.03345C0.13 0.768231 0.235357 0.513877 0.422893 0.32634C0.61043 0.138804 0.864784 0.0334473 1.13 0.0334473L15.38 0.133447C15.6452 0.133447 15.8996 0.238804 16.0871 0.426341C16.2746 0.613877 16.38 0.868231 16.38 1.13345V13.5134H14.38V2.12345L2.13 2.05345L1.99 15.9334C2.08689 16.6542 2.44225 17.3151 2.99 17.7934C3.28695 18.006 3.62934 18.1463 3.99 18.2034H4.38C4.96759 18.2453 5.55811 18.1947 6.13 18.0534C7.88 17.7534 8.04 16.0534 8.04 14.9334C8.04 14.6682 8.14536 14.4139 8.33289 14.2263C8.52043 14.0388 8.77478 13.9334 9.04 13.9334C9.04 13.9334 15.45 14.1134 17.86 14.0434C19.8 13.9834 19.52 17.7734 17.31 19.3034C16.33 19.9834 15.44 20.2334 12.83 20.2334Z" fill="#3AA76D"/>
<path d="M4.66016 4.36353H11.9702" stroke="#3AA76D" stroke-miterlimit="10" stroke-linecap="round"/>
<path d="M4.58008 7.86353H11.8901" stroke="#3AA76D" stroke-miterlimit="10" stroke-linecap="round"/>
<path d="M4.58008 11.3635H11.8901" stroke="#3AA76D" stroke-miterlimit="10" stroke-linecap="round"/>
</g>
<defs>
<clipPath id="clip0">
<rect width="19.17" height="20.26" fill="white" transform="translate(0 0.043457)"/>
</clipPath>
</defs>
</svg>
