<svg width="27" height="27" viewBox="0 0 27 27" fill="none" xmlns="http://www.w3.org/2000/svg">
<path fill-rule="evenodd" clip-rule="evenodd" d="M15.75 7.87499C15.75 6.63411 14.7409 5.62499 13.5 5.62499C12.2591 5.62499 11.25 6.63411 11.25 7.87499C11.25 9.11586 12.2591 10.125 13.5 10.125C14.7409 10.125 15.75 9.11586 15.75 7.87499ZM18 7.875C18 10.3568 15.9817 12.375 13.5 12.375C11.0182 12.375 8.99995 10.3568 8.99995 7.875C8.99995 5.39325 11.0182 3.375 13.5 3.375C15.9817 3.375 18 5.39325 18 7.875ZM5.625 22.4999C5.625 18.1574 9.15862 14.6249 13.5 14.6249C17.8414 14.6249 21.375 18.1574 21.375 22.4999C21.375 23.1209 20.8721 23.6249 20.25 23.6249C19.6279 23.6249 19.125 23.1209 19.125 22.4999C19.125 19.3983 16.6016 16.8749 13.5 16.8749C10.3984 16.8749 7.875 19.3983 7.875 22.4999C7.875 23.1209 7.37212 23.6249 6.75 23.6249C6.12787 23.6249 5.625 23.1209 5.625 22.4999Z" fill="#27AE60"/>
</svg>
