<svg width="30" height="30" viewBox="0 0 30 30" fill="none" xmlns="http://www.w3.org/2000/svg">
<path d="M29.4288 27.74L21.1467 19.3766C22.7663 17.3454 23.7467 14.767 23.7467 11.972C23.7467 5.41788 18.4329 0.104126 11.8733 0.104126C5.31375 0.104126 0 5.42329 0 11.9775C0 18.5316 5.31375 23.8454 11.8733 23.8454C14.7117 23.8454 17.3117 22.8541 19.3592 21.1912L27.5871 29.5004C27.8363 29.7658 28.1775 29.8958 28.5079 29.8958C28.8275 29.8958 29.1417 29.782 29.3854 29.5491C29.8946 29.0562 29.9108 28.2491 29.4288 27.74ZM11.8679 21.2941C9.37625 21.2941 7.03625 20.3245 5.27583 18.5641C3.51542 16.8037 2.54583 14.4637 2.54583 11.9775C2.54583 9.48579 3.51542 7.14579 5.27583 5.39079C7.03625 3.63038 9.37625 2.66079 11.8679 2.66079C14.3596 2.66079 16.6996 3.63038 18.46 5.39079C20.2204 7.15121 21.19 9.49121 21.19 11.9775C21.19 14.4691 20.2204 16.8091 18.46 18.5641C16.6996 20.3245 14.3596 21.2941 11.8679 21.2941Z" fill="#C4C4C4"/>
</svg>
