<svg id="Layer_1" data-name="Layer 1" xmlns="http://www.w3.org/2000/svg" viewBox="0 0 21 25.67"><defs><style>.cls-1{fill:none;stroke:#06a64f;stroke-width:2.2px;}.cls-2{fill:#06a64f;}</style></defs><circle class="cls-1" cx="10.5" cy="15.17" r="9.4"/><path class="cls-2" d="M5.53,12a1,1,0,1,0-1,1.72Zm5.06,4.1-.5.87a1,1,0,0,0,1,0Zm5.93-2.15a1,1,0,0,0-1-1.75Zm-12-.23,5.57,3.25,1-1.73L5.53,12Zm6.56,3.26,5.44-3-1-1.75-5.44,3Z" transform="translate(0 -0.19)"/><path class="cls-2" d="M8.35,2.54V1A.77.77,0,0,1,9.11.19h3.08A.77.77,0,0,1,13,1V2.54a.77.77,0,0,1-.77.78v.9a11,11,0,0,0-1.54-.12,11.28,11.28,0,0,0-1.54.12v-.9A.77.77,0,0,1,8.35,2.54Z" transform="translate(0 -0.19)"/><path class="cls-2" d="M17.29,6.44A10.44,10.44,0,0,0,14.67,4.9a.56.56,0,0,1,0-.12l.76-1.35a.78.78,0,0,1,1.06-.29l1.33.78A.79.79,0,0,1,18.14,5l-.77,1.35A.87.87,0,0,1,17.29,6.44Z" transform="translate(0 -0.19)"/></svg>