<svg id="Layer_1" data-name="Layer 1" xmlns="http://www.w3.org/2000/svg" viewBox="0 0 182.13 103.38"><defs><style>.cls-1{fill:#2dc117;}</style></defs><path class="cls-1" d="M175.73,65.83a53,53,0,0,0-36.44-24.4A25.65,25.65,0,0,0,143,40.09,17,17,0,0,0,153.66,22.8a17.24,17.24,0,0,0-2.14-6.87,21.39,21.39,0,0,0-27.19-7.31,16.95,16.95,0,0,0-8.52,24.15,18.75,18.75,0,0,0,9.33,7.76,60,60,0,0,0-22.46,5.53,57,57,0,0,0-10.86,6.78A57.34,57.34,0,0,0,81,46.06a60,60,0,0,0-22.46-5.53,18.82,18.82,0,0,0,9.34-7.76A17,17,0,0,0,59.31,8.62a21.4,21.4,0,0,0-27.2,7.31,17,17,0,0,0,8.53,24.16,25.53,25.53,0,0,0,3.7,1.34A53,53,0,0,0,7.9,65.83C.68,78-1.52,97.74,3.37,109.82a67.41,67.41,0,0,1,7.1-25.09C23,63.55,52.66,55.54,76.67,66.84A21.78,21.78,0,0,1,78.87,68c4.23,2.21,9.55,5.13,12.95,8.47,3.39-3.34,8.71-6.26,12.94-8.47a22.9,22.9,0,0,1,2.2-1.14c24-11.3,53.65-3.29,66.2,17.89a67.41,67.41,0,0,1,7.1,25.09C185.15,97.74,183,78,175.73,65.83Z" transform="translate(-0.75 -6.44)"/></svg>