<?xml version="1.0" encoding="utf-8"?>
<!-- Generator: Adobe Illustrator 24.3.0, SVG Export Plug-In . SVG Version: 6.00 Build 0)  -->
<svg version="1.1" id="Layer_1" xmlns:serif="http://www.serif.com/"
	 xmlns="http://www.w3.org/2000/svg" xmlns:xlink="http://www.w3.org/1999/xlink" x="0px" y="0px" viewBox="0 0 600 480"
	 style="enable-background:new 0 0 600 480;" xml:space="preserve">
<style type="text/css">
	.st0{fill:#FFC627;}
</style>
<path class="st0" d="M480,0H120C86.9,0,60,26.9,60,60v360c0,33.1,26.9,60,60,60h360c33.1,0,60-26.9,60-60V60C540,26.9,513.1,0,480,0
	z M419.3,178.9c0.1,2.6,0.1,5.3,0.1,7.9c0,81.3-61.9,175.1-175.1,175.1c-34.7,0-67.1-10.2-94-27.4c4.8,0.6,9.7,0.8,14.6,0.8
	c28.8,0,55.3-9.8,76.4-26.4c-26.9-0.5-49.7-18.2-57.5-42.7c3.7,0.7,7.5,1.1,11.5,1.1c5.6,0,11-0.8,16.2-2.2
	c-28.1-5.7-49.3-30.6-49.3-60.4v-0.8c8.2,4.6,17.7,7.3,27.8,7.7c-16.5-11-27.4-29.8-27.4-51.2c0-11.3,3-21.9,8.3-31
	c30.3,37.2,75.7,61.8,126.8,64.3c-1-4.5-1.6-9.2-1.6-14c0-34,27.6-61.6,61.6-61.6c17.7,0,33.6,7.4,44.9,19.4
	c14-2.8,27.2-7.8,39.1-14.9c-4.7,14.4-14.4,26.5-27.1,34.1c12.5-1.5,24.4-4.8,35.4-9.7C441.7,159.3,431.3,170.3,419.3,178.9z"/>
</svg>
